# xmcd
#
# Track frame offsets:
# 150
# 10555
# 24000
# 35370
# 48705
# 61420
# 73237
# 84192
# 97915
# 110655
#
# Disc length: 1622 seconds
#
#
# Revision: 3
# Processed by: cddbd v1.5.2PL0 Copyright (c) Steve Scherf et al.
# Submitted via: FreeRIP 2.951 
#
DISCID=7206540a
DTITLE=George Jones - All-Time Greatest Hits, Volume 1
DYEAR=1977
DGENRE=Country
TTITLE0=The Race Is On
TTITLE1=My Favorite Lies
TTITLE2=Tender Years
TTITLE3=The Window Up Above
TTITLE4=She Thinks I Still Care
TTITLE5=White Lightnin'
TTITLE6=Walk Through This World With Me
TTITLE7=She's Mine
TTITLE8=I'll Share My World With You
TTITLE9=Why Baby Why
EXTD=
EXTT0=
EXTT1=
EXTT2=
EXTT3=
EXTT4=
EXTT5=
EXTT6=
EXTT7=
EXTT8=
EXTT9=
PLAYORDER=
